<?xml version="1.0" encoding="UTF-8" standalone="no"?>
<!DOCTYPE svg PUBLIC "-//W3C//DTD SVG 1.1//EN"
 "http://www.w3.org/Graphics/SVG/1.1/DTD/svg11.dtd">
<!-- Generated by graphviz version 8.1.0 (20230707.0739)
 -->
<!-- Title: family Pages: 1 -->
<svg width="703pt" height="314pt"
 viewBox="0.00 0.00 702.61 314.00" xmlns="http://www.w3.org/2000/svg" xmlns:xlink="http://www.w3.org/1999/xlink">
<g id="graph0" class="graph" transform="scale(1 1) rotate(0) translate(4 310)">
<title>family</title>
<polygon fill="white" stroke="none" points="-4,4 -4,-310 698.61,-310 698.61,4 -4,4"/>
<!-- 徳川家康 -->
<g id="node1" class="node">
<title>徳川家康</title>
<polygon fill="#f0f0ff" stroke="black" points="85,-216 0,-216 0,-180 85,-180 85,-216"/>
<text text-anchor="middle" x="42.5" y="-191.82" font-family="Times New Roman,serif" font-size="14.00">徳川家康</text>
</g>
<!-- 徳川家康_西郷局 -->
<g id="node2" class="node">
<title>徳川家康_西郷局</title>
<ellipse fill="black" stroke="black" cx="140.05" cy="-198" rx="1.8" ry="1.8"/>
</g>
<!-- 徳川家康&#45;&#45;徳川家康_西郷局 -->
<g id="edge1" class="edge">
<title>徳川家康&#45;&#45;徳川家康_西郷局</title>
<path fill="none" stroke="black" d="M85.41,-198C107.87,-198 132.09,-198 137.8,-198"/>
<text text-anchor="middle" x="111.62" y="-198.95" font-family="Times New Roman,serif" font-size="14.00">父</text>
</g>
<!-- 西郷局 -->
<g id="node3" class="node">
<title>西郷局</title>
<ellipse fill="#fff0e0" stroke="black" cx="238.19" cy="-225" rx="43.09" ry="18"/>
<text text-anchor="middle" x="238.19" y="-218.82" font-family="Times New Roman,serif" font-size="14.00">西郷局</text>
</g>
<!-- 徳川家康_西郷局&#45;&#45;西郷局 -->
<g id="edge2" class="edge">
<title>徳川家康_西郷局&#45;&#45;西郷局</title>
<path fill="none" stroke="black" d="M142.13,-198.3C148.05,-199.97 177.2,-208.15 201.68,-215.03"/>
<text text-anchor="middle" x="168.47" y="-207.95" font-family="Times New Roman,serif" font-size="14.00">母</text>
</g>
<!-- 徳川家忠 -->
<g id="node4" class="node">
<title>徳川家忠</title>
<polygon fill="#f0f0ff" stroke="black" points="280.69,-189 195.69,-189 195.69,-153 280.69,-153 280.69,-189"/>
<text text-anchor="middle" x="238.19" y="-164.82" font-family="Times New Roman,serif" font-size="14.00">徳川家忠</text>
</g>
<!-- 徳川家康_西郷局&#45;&#45;徳川家忠 -->
<g id="edge3" class="edge">
<title>徳川家康_西郷局&#45;&#45;徳川家忠</title>
<path fill="none" stroke="black" d="M141.98,-197.11C144.56,-194.7 152.18,-187.95 159.85,-184.75 167.64,-181.5 176.18,-179.02 184.66,-177.13"/>
<polygon fill="black" stroke="black" points="185.16,-180.4 194.3,-175.03 183.81,-173.53 185.16,-180.4"/>
<text text-anchor="middle" x="168.47" y="-184.95" font-family="Times New Roman,serif" font-size="14.00">子</text>
</g>
<!-- 徳川家忠_お江 -->
<g id="node5" class="node">
<title>徳川家忠_お江</title>
<ellipse fill="black" stroke="black" cx="336.33" cy="-171" rx="1.8" ry="1.8"/>
</g>
<!-- 徳川家忠&#45;&#45;徳川家忠_お江 -->
<g id="edge4" class="edge">
<title>徳川家忠&#45;&#45;徳川家忠_お江</title>
<path fill="none" stroke="black" d="M281.08,-171C303.75,-171 328.28,-171 334.06,-171"/>
<text text-anchor="middle" x="307.91" y="-171.95" font-family="Times New Roman,serif" font-size="14.00">父</text>
</g>
<!-- お江 -->
<g id="node6" class="node">
<title>お江</title>
<ellipse fill="#fff0e0" stroke="black" cx="433.88" cy="-198" rx="32.12" ry="18"/>
<text text-anchor="middle" x="433.88" y="-191.82" font-family="Times New Roman,serif" font-size="14.00">お江</text>
</g>
<!-- 徳川家忠_お江&#45;&#45;お江 -->
<g id="edge5" class="edge">
<title>徳川家忠_お江&#45;&#45;お江</title>
<path fill="none" stroke="black" d="M338.4,-171.3C344.88,-173.13 379.35,-182.87 404.79,-190.06"/>
<text text-anchor="middle" x="364.76" y="-180.95" font-family="Times New Roman,serif" font-size="14.00">母</text>
</g>
<!-- 徳川家光 -->
<g id="node7" class="node">
<title>徳川家光</title>
<polygon fill="#f0f0ff" stroke="black" points="476.38,-162 391.38,-162 391.38,-126 476.38,-126 476.38,-162"/>
<text text-anchor="middle" x="433.88" y="-137.82" font-family="Times New Roman,serif" font-size="14.00">徳川家光</text>
</g>
<!-- 徳川家忠_お江&#45;&#45;徳川家光 -->
<g id="edge6" class="edge">
<title>徳川家忠_お江&#45;&#45;徳川家光</title>
<path fill="none" stroke="black" d="M338.26,-170.11C340.85,-167.7 348.47,-160.95 356.13,-157.75 363.69,-154.59 371.96,-152.16 380.18,-150.29"/>
<polygon fill="black" stroke="black" points="380.79,-153.53 389.91,-148.13 379.41,-146.67 380.79,-153.53"/>
<text text-anchor="middle" x="364.76" y="-157.95" font-family="Times New Roman,serif" font-size="14.00">子</text>
</g>
<!-- 徳川家光_お楽の方 -->
<g id="node8" class="node">
<title>徳川家光_お楽の方</title>
<ellipse fill="black" stroke="black" cx="531.43" cy="-234" rx="1.8" ry="1.8"/>
</g>
<!-- 徳川家光&#45;&#45;徳川家光_お楽の方 -->
<g id="edge7" class="edge">
<title>徳川家光&#45;&#45;徳川家光_お楽の方</title>
<path fill="none" stroke="black" d="M465.1,-162.19C469.02,-164.97 472.89,-167.94 476.38,-171 501.53,-193.03 525.49,-226.87 529.76,-233.02"/>
<text text-anchor="middle" x="503.01" y="-208.95" font-family="Times New Roman,serif" font-size="14.00">父</text>
</g>
<!-- 徳川家光_お玉 -->
<g id="node11" class="node">
<title>徳川家光_お玉</title>
<ellipse fill="black" stroke="black" cx="531.43" cy="-144" rx="1.8" ry="1.8"/>
</g>
<!-- 徳川家光&#45;&#45;徳川家光_お玉 -->
<g id="edge10" class="edge">
<title>徳川家光&#45;&#45;徳川家光_お玉</title>
<path fill="none" stroke="black" d="M476.79,-144C499.25,-144 523.48,-144 529.18,-144"/>
<text text-anchor="middle" x="503.01" y="-144.95" font-family="Times New Roman,serif" font-size="14.00">父</text>
</g>
<!-- 徳川家光_お夏 -->
<g id="node14" class="node">
<title>徳川家光_お夏</title>
<ellipse fill="black" stroke="black" cx="531.43" cy="-72" rx="1.8" ry="1.8"/>
</g>
<!-- 徳川家光&#45;&#45;徳川家光_お夏 -->
<g id="edge13" class="edge">
<title>徳川家光&#45;&#45;徳川家光_お夏</title>
<path fill="none" stroke="black" d="M458.99,-125.83C484.64,-106.5 522.47,-78 529.34,-72.82"/>
<text text-anchor="middle" x="503.01" y="-97.95" font-family="Times New Roman,serif" font-size="14.00">父</text>
</g>
<!-- お楽の方 -->
<g id="node9" class="node">
<title>お楽の方</title>
<ellipse fill="#fff0e0" stroke="black" cx="640.54" cy="-288" rx="54.06" ry="18"/>
<text text-anchor="middle" x="640.54" y="-281.82" font-family="Times New Roman,serif" font-size="14.00">お楽の方</text>
</g>
<!-- 徳川家光_お楽の方&#45;&#45;お楽の方 -->
<g id="edge8" class="edge">
<title>徳川家光_お楽の方&#45;&#45;お楽の方</title>
<path fill="none" stroke="black" d="M533.33,-235.12C535.86,-238.2 543.35,-246.89 551.23,-252 566.23,-261.73 584.3,-269.66 600.17,-275.57"/>
<text text-anchor="middle" x="559.86" y="-261.95" font-family="Times New Roman,serif" font-size="14.00">母</text>
</g>
<!-- 徳川家綱 -->
<g id="node10" class="node">
<title>徳川家綱</title>
<polygon fill="#f0f0ff" stroke="black" points="683.04,-252 598.04,-252 598.04,-216 683.04,-216 683.04,-252"/>
<text text-anchor="middle" x="640.54" y="-227.82" font-family="Times New Roman,serif" font-size="14.00">徳川家綱</text>
</g>
<!-- 徳川家光_お楽の方&#45;&#45;徳川家綱 -->
<g id="edge9" class="edge">
<title>徳川家光_お楽の方&#45;&#45;徳川家綱</title>
<path fill="none" stroke="black" d="M533.63,-234C539.19,-234 563.15,-234 586.87,-234"/>
<polygon fill="black" stroke="black" points="586.69,-237.5 596.69,-234 586.69,-230.5 586.69,-237.5"/>
<text text-anchor="middle" x="559.86" y="-234.95" font-family="Times New Roman,serif" font-size="14.00">子</text>
</g>
<!-- お玉 -->
<g id="node12" class="node">
<title>お玉</title>
<ellipse fill="#fff0e0" stroke="black" cx="640.54" cy="-180" rx="32.12" ry="18"/>
<text text-anchor="middle" x="640.54" y="-173.82" font-family="Times New Roman,serif" font-size="14.00">お玉</text>
</g>
<!-- 徳川家光_お玉&#45;&#45;お玉 -->
<g id="edge11" class="edge">
<title>徳川家光_お玉&#45;&#45;お玉</title>
<path fill="none" stroke="black" d="M533.36,-144.91C535.95,-147.4 543.58,-154.38 551.23,-158 569.51,-166.65 591.59,-172.15 609.1,-175.49"/>
<text text-anchor="middle" x="559.86" y="-164.95" font-family="Times New Roman,serif" font-size="14.00">母</text>
</g>
<!-- 徳川綱吉 -->
<g id="node13" class="node">
<title>徳川綱吉</title>
<polygon fill="#f0f0ff" stroke="black" points="683.04,-144 598.04,-144 598.04,-108 683.04,-108 683.04,-144"/>
<text text-anchor="middle" x="640.54" y="-119.83" font-family="Times New Roman,serif" font-size="14.00">徳川綱吉</text>
</g>
<!-- 徳川家光_お玉&#45;&#45;徳川綱吉 -->
<g id="edge12" class="edge">
<title>徳川家光_お玉&#45;&#45;徳川綱吉</title>
<path fill="none" stroke="black" d="M533.63,-143.8C539.19,-142.86 563.15,-138.84 586.87,-134.85"/>
<polygon fill="black" stroke="black" points="587.41,-138.14 596.69,-133.03 586.25,-131.24 587.41,-138.14"/>
<text text-anchor="middle" x="559.86" y="-140.95" font-family="Times New Roman,serif" font-size="14.00">子</text>
</g>
<!-- お夏 -->
<g id="node15" class="node">
<title>お夏</title>
<ellipse fill="#fff0e0" stroke="black" cx="640.54" cy="-72" rx="32.12" ry="18"/>
<text text-anchor="middle" x="640.54" y="-65.83" font-family="Times New Roman,serif" font-size="14.00">お夏</text>
</g>
<!-- 徳川家光_お夏&#45;&#45;お夏 -->
<g id="edge14" class="edge">
<title>徳川家光_お夏&#45;&#45;お夏</title>
<path fill="none" stroke="black" d="M533.63,-72C540.9,-72 579.54,-72 608.06,-72"/>
<text text-anchor="middle" x="559.86" y="-72.95" font-family="Times New Roman,serif" font-size="14.00">母</text>
</g>
<!-- 徳川綱重 -->
<g id="node16" class="node">
<title>徳川綱重</title>
<polygon fill="#f0f0ff" stroke="black" points="683.04,-36 598.04,-36 598.04,0 683.04,0 683.04,-36"/>
<text text-anchor="middle" x="640.54" y="-11.82" font-family="Times New Roman,serif" font-size="14.00">徳川綱重</text>
</g>
<!-- 徳川家光_お夏&#45;&#45;徳川綱重 -->
<g id="edge15" class="edge">
<title>徳川家光_お夏&#45;&#45;徳川綱重</title>
<path fill="none" stroke="black" d="M533.33,-70.86C535.85,-67.74 543.3,-58.92 551.23,-53.75 562.49,-46.41 575.51,-40.13 588.02,-34.97"/>
<polygon fill="black" stroke="black" points="588.89,-38 596.91,-31.08 586.32,-31.48 588.89,-38"/>
<text text-anchor="middle" x="559.86" y="-54.95" font-family="Times New Roman,serif" font-size="14.00">子</text>
</g>
</g>
</svg>
