<?xml version="1.0" encoding="UTF-8" standalone="no"?>
<!DOCTYPE svg PUBLIC "-//W3C//DTD SVG 1.1//EN"
 "http://www.w3.org/Graphics/SVG/1.1/DTD/svg11.dtd">
<!-- Generated by graphviz version 8.1.0 (20230707.0739)
 -->
<!-- Title: family Pages: 1 -->
<svg width="533pt" height="379pt"
 viewBox="0.00 0.00 533.00 378.80" xmlns="http://www.w3.org/2000/svg" xmlns:xlink="http://www.w3.org/1999/xlink">
<g id="graph0" class="graph" transform="scale(1 1) rotate(0) translate(4 374.8)">
<title>family</title>
<polygon fill="white" stroke="none" points="-4,4 -4,-374.8 529,-374.8 529,4 -4,4"/>
<!-- 徳川家康 -->
<g id="node1" class="node">
<title>徳川家康</title>
<polygon fill="#f0f0ff" stroke="black" points="85,-370.8 0,-370.8 0,-334.8 85,-334.8 85,-370.8"/>
<text text-anchor="middle" x="42.5" y="-346.62" font-family="Times New Roman,serif" font-size="14.00">徳川家康</text>
</g>
<!-- 徳川家康_西郷局 -->
<g id="node3" class="node">
<title>徳川家康_西郷局</title>
<ellipse fill="black" stroke="black" cx="104.5" cy="-352.8" rx="1.8" ry="1.8"/>
</g>
<!-- 徳川家康&#45;&#45;徳川家康_西郷局 -->
<g id="edge1" class="edge">
<title>徳川家康&#45;&#45;徳川家康_西郷局</title>
<path fill="none" stroke="black" d="M85.12,-352.8C90.88,-352.8 96.63,-352.8 102.38,-352.8"/>
</g>
<!-- 西郷局 -->
<g id="node2" class="node">
<title>西郷局</title>
<polygon fill="#fff0e0" stroke="black" points="192.38,-370.8 124.62,-370.8 124.62,-334.8 192.38,-334.8 192.38,-370.8"/>
<text text-anchor="middle" x="158.5" y="-346.62" font-family="Times New Roman,serif" font-size="14.00">西郷局</text>
</g>
<!-- 徳川家康_西郷局&#45;&#45;西郷局 -->
<g id="edge2" class="edge">
<title>徳川家康_西郷局&#45;&#45;西郷局</title>
<path fill="none" stroke="black" d="M106.61,-352.8C112.56,-352.8 118.5,-352.8 124.45,-352.8"/>
</g>
<!-- 徳川家康_西郷局_pc -->
<g id="node4" class="node">
<title>徳川家康_西郷局_pc</title>
<ellipse fill="black" stroke="black" cx="104.5" cy="-297" rx="1.8" ry="1.8"/>
</g>
<!-- 徳川家康_西郷局&#45;&#45;徳川家康_西郷局_pc -->
<g id="edge3" class="edge">
<title>徳川家康_西郷局&#45;&#45;徳川家康_西郷局_pc</title>
<path fill="none" stroke="black" d="M104.5,-350.87C104.5,-344.39 104.5,-306.23 104.5,-299.14"/>
</g>
<!-- 徳川家忠 -->
<g id="node5" class="node">
<title>徳川家忠</title>
<polygon fill="#f0f0ff" stroke="black" points="147,-259.2 62,-259.2 62,-223.2 147,-223.2 147,-259.2"/>
<text text-anchor="middle" x="104.5" y="-235.02" font-family="Times New Roman,serif" font-size="14.00">徳川家忠</text>
</g>
<!-- 徳川家康_西郷局_pc&#45;&#45;徳川家忠 -->
<g id="edge4" class="edge">
<title>徳川家康_西郷局_pc&#45;&#45;徳川家忠</title>
<path fill="none" stroke="black" d="M104.5,-295.07C104.5,-290.85 104.5,-273.22 104.5,-259.46"/>
</g>
<!-- 徳川家忠_お江 -->
<g id="node7" class="node">
<title>徳川家忠_お江</title>
<ellipse fill="black" stroke="black" cx="166.5" cy="-241.2" rx="1.8" ry="1.8"/>
</g>
<!-- 徳川家忠&#45;&#45;徳川家忠_お江 -->
<g id="edge5" class="edge">
<title>徳川家忠&#45;&#45;徳川家忠_お江</title>
<path fill="none" stroke="black" d="M147.12,-241.2C152.88,-241.2 158.63,-241.2 164.38,-241.2"/>
</g>
<!-- お江 -->
<g id="node6" class="node">
<title>お江</title>
<polygon fill="#fff0e0" stroke="black" points="240.5,-259.2 186.5,-259.2 186.5,-223.2 240.5,-223.2 240.5,-259.2"/>
<text text-anchor="middle" x="213.5" y="-235.02" font-family="Times New Roman,serif" font-size="14.00">お江</text>
</g>
<!-- 徳川家忠_お江&#45;&#45;お江 -->
<g id="edge6" class="edge">
<title>徳川家忠_お江&#45;&#45;お江</title>
<path fill="none" stroke="black" d="M168.7,-241.2C174.54,-241.2 180.37,-241.2 186.2,-241.2"/>
</g>
<!-- 徳川家忠_お江_pc -->
<g id="node8" class="node">
<title>徳川家忠_お江_pc</title>
<ellipse fill="black" stroke="black" cx="166.5" cy="-185.4" rx="1.8" ry="1.8"/>
</g>
<!-- 徳川家忠_お江&#45;&#45;徳川家忠_お江_pc -->
<g id="edge7" class="edge">
<title>徳川家忠_お江&#45;&#45;徳川家忠_お江_pc</title>
<path fill="none" stroke="black" d="M166.5,-239.27C166.5,-232.79 166.5,-194.63 166.5,-187.54"/>
</g>
<!-- 徳川家光 -->
<g id="node9" class="node">
<title>徳川家光</title>
<polygon fill="#f0f0ff" stroke="black" points="209,-147.6 124,-147.6 124,-111.6 209,-111.6 209,-147.6"/>
<text text-anchor="middle" x="166.5" y="-123.42" font-family="Times New Roman,serif" font-size="14.00">徳川家光</text>
</g>
<!-- 徳川家忠_お江_pc&#45;&#45;徳川家光 -->
<g id="edge8" class="edge">
<title>徳川家忠_お江_pc&#45;&#45;徳川家光</title>
<path fill="none" stroke="black" d="M166.5,-183.47C166.5,-179.25 166.5,-161.62 166.5,-147.86"/>
</g>
<!-- 徳川家光_お楽の方 -->
<g id="node11" class="node">
<title>徳川家光_お楽の方</title>
<ellipse fill="black" stroke="black" cx="420.5" cy="-129.6" rx="1.8" ry="1.8"/>
</g>
<!-- 徳川家光&#45;&#45;徳川家光_お楽の方 -->
<g id="edge9" class="edge">
<title>徳川家光&#45;&#45;徳川家光_お楽の方</title>
<path fill="none" stroke="black" d="M190.51,-148.08C200.97,-155.01 213.74,-162.07 226.5,-165.6 262.91,-175.68 363.19,-183.43 396.5,-165.6 410.54,-158.09 417.79,-138.33 419.86,-131.76"/>
</g>
<!-- 徳川家光_お玉 -->
<g id="node15" class="node">
<title>徳川家光_お玉</title>
<ellipse fill="black" stroke="black" cx="322.5" cy="-129.6" rx="1.8" ry="1.8"/>
</g>
<!-- 徳川家光&#45;&#45;徳川家光_お玉 -->
<g id="edge13" class="edge">
<title>徳川家光&#45;&#45;徳川家光_お玉</title>
<path fill="none" stroke="black" d="M190.51,-148.08C200.97,-155.01 213.74,-162.07 226.5,-165.6 259.05,-174.62 273.39,-182.73 302.5,-165.6 315.56,-157.91 320.71,-138.27 322.09,-131.74"/>
</g>
<!-- 徳川家光_お夏 -->
<g id="node19" class="node">
<title>徳川家光_お夏</title>
<ellipse fill="black" stroke="black" cx="228.5" cy="-129.6" rx="1.8" ry="1.8"/>
</g>
<!-- 徳川家光&#45;&#45;徳川家光_お夏 -->
<g id="edge17" class="edge">
<title>徳川家光&#45;&#45;徳川家光_お夏</title>
<path fill="none" stroke="black" d="M209.12,-129.6C214.88,-129.6 220.63,-129.6 226.38,-129.6"/>
</g>
<!-- お楽の方 -->
<g id="node10" class="node">
<title>お楽の方</title>
<polygon fill="#fff0e0" stroke="black" points="525,-147.6 440,-147.6 440,-111.6 525,-111.6 525,-147.6"/>
<text text-anchor="middle" x="482.5" y="-123.42" font-family="Times New Roman,serif" font-size="14.00">お楽の方</text>
</g>
<!-- 徳川家光_お楽の方&#45;&#45;お楽の方 -->
<g id="edge10" class="edge">
<title>徳川家光_お楽の方&#45;&#45;お楽の方</title>
<path fill="none" stroke="black" d="M422.44,-129.6C428.22,-129.6 434.01,-129.6 439.8,-129.6"/>
</g>
<!-- 徳川家光_お楽の方_pc -->
<g id="node12" class="node">
<title>徳川家光_お楽の方_pc</title>
<ellipse fill="black" stroke="black" cx="422.5" cy="-73.8" rx="1.8" ry="1.8"/>
</g>
<!-- 徳川家光_お楽の方&#45;&#45;徳川家光_お楽の方_pc -->
<g id="edge11" class="edge">
<title>徳川家光_お楽の方&#45;&#45;徳川家光_お楽の方_pc</title>
<path fill="none" stroke="black" d="M420.53,-127.67C420.78,-121.19 422.19,-83.03 422.46,-75.94"/>
</g>
<!-- 徳川家綱 -->
<g id="node13" class="node">
<title>徳川家綱</title>
<polygon fill="none" stroke="black" points="468,-36 383,-36 383,0 468,0 468,-36"/>
<text text-anchor="middle" x="425.5" y="-11.82" font-family="Times New Roman,serif" font-size="14.00">徳川家綱</text>
</g>
<!-- 徳川家光_お楽の方_pc&#45;&#45;徳川家綱 -->
<g id="edge12" class="edge">
<title>徳川家光_お楽の方_pc&#45;&#45;徳川家綱</title>
<path fill="none" stroke="black" d="M422.55,-71.87C422.79,-67.65 423.77,-50.02 424.54,-36.26"/>
</g>
<!-- お玉 -->
<g id="node14" class="node">
<title>お玉</title>
<polygon fill="#fff0e0" stroke="black" points="396.5,-147.6 342.5,-147.6 342.5,-111.6 396.5,-111.6 396.5,-147.6"/>
<text text-anchor="middle" x="369.5" y="-123.42" font-family="Times New Roman,serif" font-size="14.00">お玉</text>
</g>
<!-- 徳川家光_お玉&#45;&#45;お玉 -->
<g id="edge14" class="edge">
<title>徳川家光_お玉&#45;&#45;お玉</title>
<path fill="none" stroke="black" d="M324.7,-129.6C330.54,-129.6 336.37,-129.6 342.2,-129.6"/>
</g>
<!-- 徳川家光_お玉_pc -->
<g id="node16" class="node">
<title>徳川家光_お玉_pc</title>
<ellipse fill="black" stroke="black" cx="322.5" cy="-73.8" rx="1.8" ry="1.8"/>
</g>
<!-- 徳川家光_お玉&#45;&#45;徳川家光_お玉_pc -->
<g id="edge15" class="edge">
<title>徳川家光_お玉&#45;&#45;徳川家光_お玉_pc</title>
<path fill="none" stroke="black" d="M322.5,-127.67C322.5,-121.19 322.5,-83.03 322.5,-75.94"/>
</g>
<!-- 徳川綱吉 -->
<g id="node17" class="node">
<title>徳川綱吉</title>
<polygon fill="none" stroke="black" points="365,-36 280,-36 280,0 365,0 365,-36"/>
<text text-anchor="middle" x="322.5" y="-11.82" font-family="Times New Roman,serif" font-size="14.00">徳川綱吉</text>
</g>
<!-- 徳川家光_お玉_pc&#45;&#45;徳川綱吉 -->
<g id="edge16" class="edge">
<title>徳川家光_お玉_pc&#45;&#45;徳川綱吉</title>
<path fill="none" stroke="black" d="M322.5,-71.87C322.5,-67.65 322.5,-50.02 322.5,-36.26"/>
</g>
<!-- お夏 -->
<g id="node18" class="node">
<title>お夏</title>
<polygon fill="#fff0e0" stroke="black" points="302.5,-147.6 248.5,-147.6 248.5,-111.6 302.5,-111.6 302.5,-147.6"/>
<text text-anchor="middle" x="275.5" y="-123.42" font-family="Times New Roman,serif" font-size="14.00">お夏</text>
</g>
<!-- 徳川家光_お夏&#45;&#45;お夏 -->
<g id="edge18" class="edge">
<title>徳川家光_お夏&#45;&#45;お夏</title>
<path fill="none" stroke="black" d="M230.7,-129.6C236.54,-129.6 242.37,-129.6 248.2,-129.6"/>
</g>
<!-- 徳川家光_お夏_pc -->
<g id="node20" class="node">
<title>徳川家光_お夏_pc</title>
<ellipse fill="black" stroke="black" cx="224.5" cy="-73.8" rx="1.8" ry="1.8"/>
</g>
<!-- 徳川家光_お夏&#45;&#45;徳川家光_お夏_pc -->
<g id="edge19" class="edge">
<title>徳川家光_お夏&#45;&#45;徳川家光_お夏_pc</title>
<path fill="none" stroke="black" d="M228.43,-127.67C227.95,-121.19 225.11,-83.03 224.58,-75.94"/>
</g>
<!-- 徳川綱重 -->
<g id="node21" class="node">
<title>徳川綱重</title>
<polygon fill="none" stroke="black" points="262,-36 177,-36 177,0 262,0 262,-36"/>
<text text-anchor="middle" x="219.5" y="-11.82" font-family="Times New Roman,serif" font-size="14.00">徳川綱重</text>
</g>
<!-- 徳川家光_お夏_pc&#45;&#45;徳川綱重 -->
<g id="edge20" class="edge">
<title>徳川家光_お夏_pc&#45;&#45;徳川綱重</title>
<path fill="none" stroke="black" d="M224.41,-71.87C224.02,-67.65 222.38,-50.02 221.1,-36.26"/>
</g>
</g>
</svg>
