<?xml version="1.0" encoding="UTF-8" standalone="no"?>
<!DOCTYPE svg PUBLIC "-//W3C//DTD SVG 1.1//EN"
 "http://www.w3.org/Graphics/SVG/1.1/DTD/svg11.dtd">
<!-- Generated by graphviz version 8.1.0 (20230707.0739)
 -->
<!-- Title: family Pages: 1 -->
<svg width="759pt" height="379pt"
 viewBox="0.00 0.00 759.00 378.80" xmlns="http://www.w3.org/2000/svg" xmlns:xlink="http://www.w3.org/1999/xlink">
<g id="graph0" class="graph" transform="scale(1 1) rotate(0) translate(4 374.8)">
<title>family</title>
<polygon fill="white" stroke="none" points="-4,4 -4,-374.8 755,-374.8 755,4 -4,4"/>
<!-- 木下弥右衛門 -->
<g id="node1" class="node">
<title>木下弥右衛門</title>
<polygon fill="#f0f0ff" stroke="black" points="327.25,-370.8 207.75,-370.8 207.75,-334.8 327.25,-334.8 327.25,-370.8"/>
<text text-anchor="middle" x="267.5" y="-346.62" font-family="Times New Roman,serif" font-size="14.00">木下弥右衛門</text>
</g>
<!-- 木下弥右衛門_なか -->
<g id="node3" class="node">
<title>木下弥右衛門_なか</title>
<ellipse fill="black" stroke="black" cx="347.5" cy="-352.8" rx="1.8" ry="1.8"/>
</g>
<!-- 木下弥右衛門&#45;&#45;木下弥右衛門_なか -->
<g id="edge1" class="edge">
<title>木下弥右衛門&#45;&#45;木下弥右衛門_なか</title>
<path fill="none" stroke="black" d="M327.5,-352.8C333.44,-352.8 339.38,-352.8 345.31,-352.8"/>
</g>
<!-- なか -->
<g id="node2" class="node">
<title>なか</title>
<polygon fill="#fff0e0" stroke="black" points="421.5,-370.8 367.5,-370.8 367.5,-334.8 421.5,-334.8 421.5,-370.8"/>
<text text-anchor="middle" x="394.5" y="-346.62" font-family="Times New Roman,serif" font-size="14.00">なか</text>
</g>
<!-- 木下弥右衛門_なか&#45;&#45;なか -->
<g id="edge2" class="edge">
<title>木下弥右衛門_なか&#45;&#45;なか</title>
<path fill="none" stroke="black" d="M349.7,-352.8C355.54,-352.8 361.37,-352.8 367.2,-352.8"/>
</g>
<!-- 木下弥右衛門_なか_pc -->
<g id="node4" class="node">
<title>木下弥右衛門_なか_pc</title>
<ellipse fill="black" stroke="black" cx="347.5" cy="-297" rx="1.8" ry="1.8"/>
</g>
<!-- 木下弥右衛門_なか&#45;&#45;木下弥右衛門_なか_pc -->
<g id="edge3" class="edge">
<title>木下弥右衛門_なか&#45;&#45;木下弥右衛門_なか_pc</title>
<path fill="none" stroke="black" d="M347.5,-350.87C347.5,-344.39 347.5,-306.23 347.5,-299.14"/>
</g>
<!-- 豊臣秀吉 -->
<g id="node5" class="node">
<title>豊臣秀吉</title>
<polygon fill="#f0f0ff" stroke="black" points="85,-259.2 0,-259.2 0,-223.2 85,-223.2 85,-259.2"/>
<text text-anchor="middle" x="42.5" y="-235.02" font-family="Times New Roman,serif" font-size="14.00">豊臣秀吉</text>
</g>
<!-- 木下弥右衛門_なか_pc&#45;&#45;豊臣秀吉 -->
<g id="edge4" class="edge">
<title>木下弥右衛門_なか_pc&#45;&#45;豊臣秀吉</title>
<path fill="none" stroke="black" d="M345.87,-295.88C329.75,-294.63 197.55,-283.87 93.5,-259.2 90.87,-258.58 88.18,-257.87 85.47,-257.12"/>
</g>
<!-- とも -->
<g id="node6" class="node">
<title>とも</title>
<polygon fill="#fff0e0" stroke="black" points="679.5,-259.2 625.5,-259.2 625.5,-223.2 679.5,-223.2 679.5,-259.2"/>
<text text-anchor="middle" x="652.5" y="-235.02" font-family="Times New Roman,serif" font-size="14.00">とも</text>
</g>
<!-- 木下弥右衛門_なか_pc&#45;&#45;とも -->
<g id="edge5" class="edge">
<title>木下弥右衛門_なか_pc&#45;&#45;とも</title>
<path fill="none" stroke="black" d="M349.47,-295.96C367.7,-295.53 508.5,-291.26 616.5,-259.2 619.42,-258.33 622.39,-257.26 625.32,-256.09"/>
</g>
<!-- 豊臣秀吉_およね -->
<g id="node8" class="node">
<title>豊臣秀吉_およね</title>
<ellipse fill="black" stroke="black" cx="198.5" cy="-241.2" rx="1.8" ry="1.8"/>
</g>
<!-- 豊臣秀吉&#45;&#45;豊臣秀吉_およね -->
<g id="edge6" class="edge">
<title>豊臣秀吉&#45;&#45;豊臣秀吉_およね</title>
<path fill="none" stroke="black" d="M66.51,-259.68C76.97,-266.61 89.74,-273.67 102.5,-277.2 135.05,-286.22 149.39,-294.33 178.5,-277.2 191.56,-269.51 196.71,-249.87 198.09,-243.34"/>
</g>
<!-- 豊臣秀吉_茶々 -->
<g id="node10" class="node">
<title>豊臣秀吉_茶々</title>
<ellipse fill="black" stroke="black" cx="104.5" cy="-241.2" rx="1.8" ry="1.8"/>
</g>
<!-- 豊臣秀吉&#45;&#45;豊臣秀吉_茶々 -->
<g id="edge8" class="edge">
<title>豊臣秀吉&#45;&#45;豊臣秀吉_茶々</title>
<path fill="none" stroke="black" d="M85.12,-241.2C90.88,-241.2 96.63,-241.2 102.38,-241.2"/>
</g>
<!-- およね -->
<g id="node7" class="node">
<title>およね</title>
<polygon fill="#fff0e0" stroke="black" points="286.38,-259.2 218.62,-259.2 218.62,-223.2 286.38,-223.2 286.38,-259.2"/>
<text text-anchor="middle" x="252.5" y="-235.02" font-family="Times New Roman,serif" font-size="14.00">およね</text>
</g>
<!-- 豊臣秀吉_およね&#45;&#45;およね -->
<g id="edge7" class="edge">
<title>豊臣秀吉_およね&#45;&#45;およね</title>
<path fill="none" stroke="black" d="M200.61,-241.2C206.56,-241.2 212.5,-241.2 218.45,-241.2"/>
</g>
<!-- 茶々 -->
<g id="node9" class="node">
<title>茶々</title>
<polygon fill="#fff0e0" stroke="black" points="178.5,-259.2 124.5,-259.2 124.5,-223.2 178.5,-223.2 178.5,-259.2"/>
<text text-anchor="middle" x="151.5" y="-235.02" font-family="Times New Roman,serif" font-size="14.00">茶々</text>
</g>
<!-- 豊臣秀吉_茶々&#45;&#45;茶々 -->
<g id="edge9" class="edge">
<title>豊臣秀吉_茶々&#45;&#45;茶々</title>
<path fill="none" stroke="black" d="M106.7,-241.2C112.54,-241.2 118.37,-241.2 124.2,-241.2"/>
</g>
<!-- 豊臣秀吉_茶々_pc -->
<g id="node11" class="node">
<title>豊臣秀吉_茶々_pc</title>
<ellipse fill="black" stroke="black" cx="107.5" cy="-185.4" rx="1.8" ry="1.8"/>
</g>
<!-- 豊臣秀吉_茶々&#45;&#45;豊臣秀吉_茶々_pc -->
<g id="edge10" class="edge">
<title>豊臣秀吉_茶々&#45;&#45;豊臣秀吉_茶々_pc</title>
<path fill="none" stroke="black" d="M104.55,-239.27C104.91,-232.79 107.04,-194.63 107.44,-187.54"/>
</g>
<!-- 豊臣鶴松 -->
<g id="node12" class="node">
<title>豊臣鶴松</title>
<polygon fill="none" stroke="black" points="150,-147.6 65,-147.6 65,-111.6 150,-111.6 150,-147.6"/>
<text text-anchor="middle" x="107.5" y="-123.42" font-family="Times New Roman,serif" font-size="14.00">豊臣鶴松</text>
</g>
<!-- 豊臣秀吉_茶々_pc&#45;&#45;豊臣鶴松 -->
<g id="edge11" class="edge">
<title>豊臣秀吉_茶々_pc&#45;&#45;豊臣鶴松</title>
<path fill="none" stroke="black" d="M107.5,-183.47C107.5,-179.25 107.5,-161.62 107.5,-147.86"/>
</g>
<!-- 豊臣秀頼 -->
<g id="node13" class="node">
<title>豊臣秀頼</title>
<polygon fill="#f0f0ff" stroke="black" points="276,-147.6 191,-147.6 191,-111.6 276,-111.6 276,-147.6"/>
<text text-anchor="middle" x="233.5" y="-123.42" font-family="Times New Roman,serif" font-size="14.00">豊臣秀頼</text>
</g>
<!-- 豊臣秀吉_茶々_pc&#45;&#45;豊臣秀頼 -->
<g id="edge12" class="edge">
<title>豊臣秀吉_茶々_pc&#45;&#45;豊臣秀頼</title>
<path fill="none" stroke="black" d="M108.92,-183.8C117.13,-180.29 159.51,-162.19 192.59,-148.07"/>
</g>
<!-- 豊臣秀頼_千姫 -->
<g id="node21" class="node">
<title>豊臣秀頼_千姫</title>
<ellipse fill="black" stroke="black" cx="306.5" cy="-129.6" rx="1.8" ry="1.8"/>
</g>
<!-- 豊臣秀頼&#45;&#45;豊臣秀頼_千姫 -->
<g id="edge19" class="edge">
<title>豊臣秀頼&#45;&#45;豊臣秀頼_千姫</title>
<path fill="none" stroke="black" d="M276.27,-129.6C285.72,-129.6 295.17,-129.6 304.61,-129.6"/>
</g>
<!-- 三好良房 -->
<g id="node14" class="node">
<title>三好良房</title>
<polygon fill="#f0f0ff" stroke="black" points="586,-259.2 501,-259.2 501,-223.2 586,-223.2 586,-259.2"/>
<text text-anchor="middle" x="543.5" y="-235.02" font-family="Times New Roman,serif" font-size="14.00">三好良房</text>
</g>
<!-- 三好良房_とも -->
<g id="node15" class="node">
<title>三好良房_とも</title>
<ellipse fill="black" stroke="black" cx="605.5" cy="-241.2" rx="1.8" ry="1.8"/>
</g>
<!-- 三好良房&#45;&#45;三好良房_とも -->
<g id="edge13" class="edge">
<title>三好良房&#45;&#45;三好良房_とも</title>
<path fill="none" stroke="black" d="M586.12,-241.2C591.88,-241.2 597.63,-241.2 603.38,-241.2"/>
</g>
<!-- 三好良房_とも&#45;&#45;とも -->
<g id="edge14" class="edge">
<title>三好良房_とも&#45;&#45;とも</title>
<path fill="none" stroke="black" d="M607.7,-241.2C613.54,-241.2 619.37,-241.2 625.2,-241.2"/>
</g>
<!-- 三好良房_とも_pc -->
<g id="node16" class="node">
<title>三好良房_とも_pc</title>
<ellipse fill="black" stroke="black" cx="605.5" cy="-185.4" rx="1.8" ry="1.8"/>
</g>
<!-- 三好良房_とも&#45;&#45;三好良房_とも_pc -->
<g id="edge15" class="edge">
<title>三好良房_とも&#45;&#45;三好良房_とも_pc</title>
<path fill="none" stroke="black" d="M605.5,-239.27C605.5,-232.79 605.5,-194.63 605.5,-187.54"/>
</g>
<!-- 豊臣秀次 -->
<g id="node17" class="node">
<title>豊臣秀次</title>
<polygon fill="none" stroke="black" points="545,-147.6 460,-147.6 460,-111.6 545,-111.6 545,-147.6"/>
<text text-anchor="middle" x="502.5" y="-123.42" font-family="Times New Roman,serif" font-size="14.00">豊臣秀次</text>
</g>
<!-- 三好良房_とも_pc&#45;&#45;豊臣秀次 -->
<g id="edge16" class="edge">
<title>三好良房_とも_pc&#45;&#45;豊臣秀次</title>
<path fill="none" stroke="black" d="M604.04,-183.64C596.64,-179.77 562.43,-161.9 535.74,-147.96"/>
</g>
<!-- 豊臣秀勝 -->
<g id="node18" class="node">
<title>豊臣秀勝</title>
<polygon fill="none" stroke="black" points="648,-147.6 563,-147.6 563,-111.6 648,-111.6 648,-147.6"/>
<text text-anchor="middle" x="605.5" y="-123.42" font-family="Times New Roman,serif" font-size="14.00">豊臣秀勝</text>
</g>
<!-- 三好良房_とも_pc&#45;&#45;豊臣秀勝 -->
<g id="edge17" class="edge">
<title>三好良房_とも_pc&#45;&#45;豊臣秀勝</title>
<path fill="none" stroke="black" d="M605.5,-183.47C605.5,-179.25 605.5,-161.62 605.5,-147.86"/>
</g>
<!-- 豊臣秀保 -->
<g id="node19" class="node">
<title>豊臣秀保</title>
<polygon fill="none" stroke="black" points="751,-147.6 666,-147.6 666,-111.6 751,-111.6 751,-147.6"/>
<text text-anchor="middle" x="708.5" y="-123.42" font-family="Times New Roman,serif" font-size="14.00">豊臣秀保</text>
</g>
<!-- 三好良房_とも_pc&#45;&#45;豊臣秀保 -->
<g id="edge18" class="edge">
<title>三好良房_とも_pc&#45;&#45;豊臣秀保</title>
<path fill="none" stroke="black" d="M606.96,-183.64C614.36,-179.77 648.57,-161.9 675.26,-147.96"/>
</g>
<!-- 千姫 -->
<g id="node20" class="node">
<title>千姫</title>
<polygon fill="#fff0e0" stroke="black" points="386.5,-147.6 332.5,-147.6 332.5,-111.6 386.5,-111.6 386.5,-147.6"/>
<text text-anchor="middle" x="359.5" y="-123.42" font-family="Times New Roman,serif" font-size="14.00">千姫</text>
</g>
<!-- 豊臣秀頼_千姫&#45;&#45;千姫 -->
<g id="edge20" class="edge">
<title>豊臣秀頼_千姫&#45;&#45;千姫</title>
<path fill="none" stroke="black" d="M308.57,-129.6C316.4,-129.6 324.22,-129.6 332.05,-129.6"/>
</g>
<!-- 豊臣秀頼_千姫_pc -->
<g id="node22" class="node">
<title>豊臣秀頼_千姫_pc</title>
<ellipse fill="black" stroke="black" cx="306.5" cy="-73.8" rx="1.8" ry="1.8"/>
</g>
<!-- 豊臣秀頼_千姫&#45;&#45;豊臣秀頼_千姫_pc -->
<g id="edge21" class="edge">
<title>豊臣秀頼_千姫&#45;&#45;豊臣秀頼_千姫_pc</title>
<path fill="none" stroke="black" d="M306.5,-127.67C306.5,-121.19 306.5,-83.03 306.5,-75.94"/>
</g>
<!-- 豊臣国松 -->
<g id="node23" class="node">
<title>豊臣国松</title>
<polygon fill="none" stroke="black" points="349,-36 264,-36 264,0 349,0 349,-36"/>
<text text-anchor="middle" x="306.5" y="-11.82" font-family="Times New Roman,serif" font-size="14.00">豊臣国松</text>
</g>
<!-- 豊臣秀頼_千姫_pc&#45;&#45;豊臣国松 -->
<g id="edge22" class="edge">
<title>豊臣秀頼_千姫_pc&#45;&#45;豊臣国松</title>
<path fill="none" stroke="black" d="M306.5,-71.87C306.5,-67.65 306.5,-50.02 306.5,-36.26"/>
</g>
<!-- 徳川秀忠 -->
<g id="node24" class="node">
<title>徳川秀忠</title>
<polygon fill="#f0f0ff" stroke="black" points="389,-259.2 304,-259.2 304,-223.2 389,-223.2 389,-259.2"/>
<text text-anchor="middle" x="346.5" y="-235.02" font-family="Times New Roman,serif" font-size="14.00">徳川秀忠</text>
</g>
<!-- 徳川秀忠_お江 -->
<g id="node26" class="node">
<title>徳川秀忠_お江</title>
<ellipse fill="black" stroke="black" cx="408.5" cy="-241.2" rx="1.8" ry="1.8"/>
</g>
<!-- 徳川秀忠&#45;&#45;徳川秀忠_お江 -->
<g id="edge23" class="edge">
<title>徳川秀忠&#45;&#45;徳川秀忠_お江</title>
<path fill="none" stroke="black" d="M389.12,-241.2C394.88,-241.2 400.63,-241.2 406.38,-241.2"/>
</g>
<!-- お江 -->
<g id="node25" class="node">
<title>お江</title>
<polygon fill="#fff0e0" stroke="black" points="482.5,-259.2 428.5,-259.2 428.5,-223.2 482.5,-223.2 482.5,-259.2"/>
<text text-anchor="middle" x="455.5" y="-235.02" font-family="Times New Roman,serif" font-size="14.00">お江</text>
</g>
<!-- 徳川秀忠_お江&#45;&#45;お江 -->
<g id="edge24" class="edge">
<title>徳川秀忠_お江&#45;&#45;お江</title>
<path fill="none" stroke="black" d="M410.7,-241.2C416.54,-241.2 422.37,-241.2 428.2,-241.2"/>
</g>
<!-- 徳川秀忠_お江_pc -->
<g id="node27" class="node">
<title>徳川秀忠_お江_pc</title>
<ellipse fill="black" stroke="black" cx="362.5" cy="-185.4" rx="1.8" ry="1.8"/>
</g>
<!-- 徳川秀忠_お江&#45;&#45;徳川秀忠_お江_pc -->
<g id="edge25" class="edge">
<title>徳川秀忠_お江&#45;&#45;徳川秀忠_お江_pc</title>
<path fill="none" stroke="black" d="M407.96,-239.24C406.46,-236.58 402.03,-228.94 397.5,-223.2 385.28,-207.69 367.65,-191.15 363.43,-187.25"/>
</g>
<!-- 徳川秀忠_お江_pc&#45;&#45;千姫 -->
<g id="edge26" class="edge">
<title>徳川秀忠_お江_pc&#45;&#45;千姫</title>
<path fill="none" stroke="black" d="M362.45,-183.47C362.21,-179.25 361.23,-161.62 360.46,-147.86"/>
</g>
</g>
</svg>
