<?xml version="1.0" encoding="UTF-8" standalone="no"?>
<!DOCTYPE svg PUBLIC "-//W3C//DTD SVG 1.1//EN"
 "http://www.w3.org/Graphics/SVG/1.1/DTD/svg11.dtd">
<!-- Generated by graphviz version 8.1.0 (20230707.0739)
 -->
<!-- Title: idea Pages: 1 -->
<svg width="573pt" height="407pt"
 viewBox="0.00 0.00 573.00 407.00" xmlns="http://www.w3.org/2000/svg" xmlns:xlink="http://www.w3.org/1999/xlink">
<g id="graph0" class="graph" transform="scale(1 1) rotate(0) translate(4 403)">
<title>idea</title>
<polygon fill="white" stroke="none" points="-4,4 -4,-403 569,-403 569,4 -4,4"/>
<!-- 中心となるアイデア -->
<g id="node1" class="node">
<title>中心となるアイデア</title>
<ellipse fill="none" stroke="black" cx="113.01" cy="-285.87" rx="108.92" ry="108.92"/>
<ellipse fill="none" stroke="black" cx="113.01" cy="-285.87" rx="112.92" ry="112.92"/>
<text text-anchor="middle" x="113.01" y="-279.7" font-family="Times New Roman,serif" font-size="14.00">中心となるアイデア</text>
</g>
<!-- アイデア1 -->
<g id="node2" class="node">
<title>アイデア1</title>
<ellipse fill="none" stroke="black" cx="352.59" cy="-282.75" rx="61.04" ry="18"/>
<text text-anchor="middle" x="352.59" y="-277.33" font-family="Times New Roman,serif" font-size="14.00">アイデア1</text>
</g>
<!-- 中心となるアイデア&#45;&gt;アイデア1 -->
<g id="edge1" class="edge">
<title>中心となるアイデア&#45;&gt;アイデア1</title>
<path fill="none" stroke="black" d="M226.14,-284.4C244.52,-284.16 263.12,-283.92 280.18,-283.7"/>
<polygon fill="black" stroke="black" points="280.21,-287.18 290.16,-283.55 280.11,-280.18 280.21,-287.18"/>
</g>
<!-- アイデア2 -->
<g id="node6" class="node">
<title>アイデア2</title>
<ellipse fill="none" stroke="black" cx="299.37" cy="-169.59" rx="61.04" ry="18"/>
<text text-anchor="middle" x="299.37" y="-164.17" font-family="Times New Roman,serif" font-size="14.00">アイデア2</text>
</g>
<!-- 中心となるアイデア&#45;&gt;アイデア2 -->
<g id="edge5" class="edge">
<title>中心となるアイデア&#45;&gt;アイデア2</title>
<path fill="none" stroke="black" d="M209.2,-225.86C228.65,-213.72 247.94,-201.69 263.64,-191.89"/>
<polygon fill="black" stroke="black" points="265.3,-194.35 271.93,-186.09 261.6,-188.41 265.3,-194.35"/>
</g>
<!-- アイデア3 -->
<g id="node9" class="node">
<title>アイデア3</title>
<ellipse fill="none" stroke="black" cx="280.03" cy="-74.98" rx="61.04" ry="18"/>
<text text-anchor="middle" x="280.03" y="-69.55" font-family="Times New Roman,serif" font-size="14.00">アイデア3</text>
</g>
<!-- 中心となるアイデア&#45;&gt;アイデア3 -->
<g id="edge8" class="edge">
<title>中心となるアイデア&#45;&gt;アイデア3</title>
<path fill="none" stroke="black" d="M183.36,-197.05C210.71,-162.51 239.99,-125.53 259.07,-101.44"/>
<polygon fill="black" stroke="black" points="262.39,-103.88 265.86,-93.87 256.91,-99.54 262.39,-103.88"/>
</g>
<!-- アイデア1_A -->
<g id="node3" class="node">
<title>アイデア1_A</title>
<polygon fill="none" stroke="black" points="565.44,-306.19 456.44,-306.19 456.44,-270.19 565.44,-270.19 565.44,-306.19"/>
<text text-anchor="middle" x="510.94" y="-282.76" font-family="Times New Roman,serif" font-size="14.00">アイデア1_A</text>
</g>
<!-- アイデア1&#45;&gt;アイデア1_A -->
<g id="edge2" class="edge">
<title>アイデア1&#45;&gt;アイデア1_A</title>
<path fill="none" stroke="black" d="M413.36,-284.84C423.78,-285.2 434.65,-285.57 445.2,-285.93"/>
<polygon fill="black" stroke="black" points="444.92,-289.46 455.03,-286.3 445.16,-282.46 444.92,-289.46"/>
</g>
<!-- アイデア1_B -->
<g id="node4" class="node">
<title>アイデア1_B</title>
<polygon fill="none" stroke="black" points="343.39,-351.99 235.14,-351.99 235.14,-315.99 343.39,-315.99 343.39,-351.99"/>
<text text-anchor="middle" x="289.26" y="-328.57" font-family="Times New Roman,serif" font-size="14.00">アイデア1_B</text>
</g>
<!-- アイデア1&#45;&gt;アイデア1_B -->
<g id="edge3" class="edge">
<title>アイデア1&#45;&gt;アイデア1_B</title>
<path fill="none" stroke="black" d="M331.5,-299.81C327.84,-302.78 323.97,-305.91 320.11,-309.03"/>
<polygon fill="black" stroke="black" points="318.35,-306.76 312.78,-315.77 322.75,-312.2 318.35,-306.76"/>
</g>
<!-- アイデア1_C -->
<g id="node5" class="node">
<title>アイデア1_C</title>
<polygon fill="none" stroke="black" points="464.32,-352.63 355.32,-352.63 355.32,-316.63 464.32,-316.63 464.32,-352.63"/>
<text text-anchor="middle" x="409.82" y="-329.21" font-family="Times New Roman,serif" font-size="14.00">アイデア1_C</text>
</g>
<!-- アイデア1&#45;&gt;アイデア1_C -->
<g id="edge4" class="edge">
<title>アイデア1&#45;&gt;アイデア1_C</title>
<path fill="none" stroke="black" d="M371.64,-300.03C374.78,-302.86 378.08,-305.86 381.38,-308.85"/>
<polygon fill="black" stroke="black" points="378.71,-311.06 388.47,-315.19 383.41,-305.88 378.71,-311.06"/>
</g>
<!-- アイデア2_A -->
<g id="node7" class="node">
<title>アイデア2_A</title>
<polygon fill="none" stroke="black" points="495.01,-162.45 386.01,-162.45 386.01,-126.45 495.01,-126.45 495.01,-162.45"/>
<text text-anchor="middle" x="440.51" y="-139.03" font-family="Times New Roman,serif" font-size="14.00">アイデア2_A</text>
</g>
<!-- アイデア2&#45;&gt;アイデア2_A -->
<g id="edge6" class="edge">
<title>アイデア2&#45;&gt;アイデア2_A</title>
<path fill="none" stroke="black" d="M351.93,-160.23C359.39,-158.9 367.13,-157.52 374.8,-156.16"/>
<polygon fill="black" stroke="black" points="375.32,-159.44 384.55,-154.24 374.09,-152.55 375.32,-159.44"/>
</g>
<!-- アイデア2_B -->
<g id="node8" class="node">
<title>アイデア2_B</title>
<polygon fill="none" stroke="black" points="232.76,-140.79 124.51,-140.79 124.51,-104.79 232.76,-104.79 232.76,-140.79"/>
<text text-anchor="middle" x="178.64" y="-117.36" font-family="Times New Roman,serif" font-size="14.00">アイデア2_B</text>
</g>
<!-- アイデア2&#45;&gt;アイデア2_B -->
<g id="edge7" class="edge">
<title>アイデア2&#45;&gt;アイデア2_B</title>
<path fill="none" stroke="black" d="M261.83,-155.04C253.67,-151.88 244.86,-148.46 236.13,-145.08"/>
<polygon fill="black" stroke="black" points="237.55,-141.49 226.96,-141.13 235.02,-148.01 237.55,-141.49"/>
</g>
<!-- アイデア3_A -->
<g id="node10" class="node">
<title>アイデア3_A</title>
<polygon fill="none" stroke="black" points="187.29,-63.5 78.29,-63.5 78.29,-27.5 187.29,-27.5 187.29,-63.5"/>
<text text-anchor="middle" x="132.79" y="-40.08" font-family="Times New Roman,serif" font-size="14.00">アイデア3_A</text>
</g>
<!-- アイデア3&#45;&gt;アイデア3_A -->
<g id="edge9" class="edge">
<title>アイデア3&#45;&gt;アイデア3_A</title>
<path fill="none" stroke="black" d="M228.94,-64.75C219.02,-62.76 208.49,-60.66 198.18,-58.59"/>
<polygon fill="black" stroke="black" points="199.04,-54.99 188.54,-56.46 197.66,-61.86 199.04,-54.99"/>
</g>
<!-- アイデア3_B -->
<g id="node11" class="node">
<title>アイデア3_B</title>
<polygon fill="none" stroke="black" points="446.94,-35.99 338.69,-35.99 338.69,0.01 446.94,0.01 446.94,-35.99"/>
<text text-anchor="middle" x="392.81" y="-12.56" font-family="Times New Roman,serif" font-size="14.00">アイデア3_B</text>
</g>
<!-- アイデア3&#45;&gt;アイデア3_B -->
<g id="edge10" class="edge">
<title>アイデア3&#45;&gt;アイデア3_B</title>
<path fill="none" stroke="black" d="M311.45,-59.1C322.34,-53.6 334.8,-47.3 346.64,-41.32"/>
<polygon fill="black" stroke="black" points="348.04,-44.03 355.38,-36.39 344.88,-37.78 348.04,-44.03"/>
</g>
</g>
</svg>
