<?xml version="1.0" encoding="UTF-8" standalone="no"?>
<!DOCTYPE svg PUBLIC "-//W3C//DTD SVG 1.1//EN"
 "http://www.w3.org/Graphics/SVG/1.1/DTD/svg11.dtd">
<!-- Generated by graphviz version 8.1.0 (20230707.0739)
 -->
<!-- Title: G Pages: 1 -->
<svg width="676pt" height="485pt"
 viewBox="0.00 0.00 676.25 485.00" xmlns="http://www.w3.org/2000/svg" xmlns:xlink="http://www.w3.org/1999/xlink">
<g id="graph0" class="graph" transform="scale(1 1) rotate(0) translate(4 481)">
<title>G</title>
<polygon fill="white" stroke="none" points="-4,4 -4,-481 672.25,-481 672.25,4 -4,4"/>
<!-- menu -->
<g id="node1" class="node">
<title>menu</title>
<polygon fill="none" stroke="black" points="0,-275.5 0,-311.5 54,-311.5 54,-275.5 0,-275.5"/>
<text text-anchor="middle" x="27" y="-288.2" font-family="Times New Roman,serif" font-size="14.00">menu</text>
</g>
<!-- 本日のお勧め -->
<g id="node2" class="node">
<title>本日のお勧め</title>
<polygon fill="none" stroke="black" points="90,-385.5 90,-421.5 209.5,-421.5 209.5,-385.5 90,-385.5"/>
<text text-anchor="middle" x="149.75" y="-397.7" font-family="Times New Roman,serif" font-size="14.00">本日のお勧め</text>
</g>
<!-- menu&#45;&gt;本日のお勧め -->
<g id="edge1" class="edge">
<title>menu&#45;&gt;本日のお勧め</title>
<path fill="none" stroke="black" d="M47.67,-311.42C67.58,-329.56 98.55,-357.77 120.96,-378.18"/>
<polygon fill="black" stroke="black" points="118.34,-380.44 128.09,-384.59 123.05,-375.27 118.34,-380.44"/>
</g>
<!-- 通常 -->
<g id="node7" class="node">
<title>通常</title>
<polygon fill="none" stroke="black" points="122.75,-193.5 122.75,-229.5 176.75,-229.5 176.75,-193.5 122.75,-193.5"/>
<text text-anchor="middle" x="149.75" y="-205.7" font-family="Times New Roman,serif" font-size="14.00">通常</text>
</g>
<!-- menu&#45;&gt;通常 -->
<g id="edge6" class="edge">
<title>menu&#45;&gt;通常</title>
<path fill="none" stroke="black" d="M53.9,-275.91C71.41,-264.02 94.74,-248.18 113.87,-235.18"/>
<polygon fill="black" stroke="black" points="115.58,-237.58 121.89,-229.06 111.65,-231.78 115.58,-237.58"/>
</g>
<!-- ナスとベーコンの熱々パスタセット -->
<g id="node3" class="node">
<title>ナスとベーコンの熱々パスタセット</title>
<polygon fill="none" stroke="black" points="262.75,-440.5 262.75,-476.5 554.75,-476.5 554.75,-440.5 262.75,-440.5"/>
<text text-anchor="middle" x="408.75" y="-452.7" font-family="Times New Roman,serif" font-size="14.00">ナスとベーコンの熱々パスタセット</text>
</g>
<!-- 本日のお勧め&#45;&gt;ナスとベーコンの熱々パスタセット -->
<g id="edge2" class="edge">
<title>本日のお勧め&#45;&gt;ナスとベーコンの熱々パスタセット</title>
<path fill="none" stroke="black" d="M207.32,-421.45C219.82,-425.07 233.05,-428.64 245.5,-431.5 256.37,-434 267.69,-436.37 279.09,-438.58"/>
<polygon fill="black" stroke="black" points="278.08,-442.14 288.56,-440.57 279.39,-435.26 278.08,-442.14"/>
</g>
<!-- 絶品カニのトマトクリームパスタセット -->
<g id="node5" class="node">
<title>絶品カニのトマトクリームパスタセット</title>
<polygon fill="none" stroke="black" points="245.5,-385.5 245.5,-421.5 572,-421.5 572,-385.5 245.5,-385.5"/>
<text text-anchor="middle" x="408.75" y="-397.7" font-family="Times New Roman,serif" font-size="14.00">絶品カニのトマトクリームパスタセット</text>
</g>
<!-- 本日のお勧め&#45;&gt;絶品カニのトマトクリームパスタセット -->
<g id="edge4" class="edge">
<title>本日のお勧め&#45;&gt;絶品カニのトマトクリームパスタセット</title>
<path fill="none" stroke="black" d="M209.39,-403.5C217.39,-403.5 225.92,-403.5 234.76,-403.5"/>
<polygon fill="black" stroke="black" points="234.7,-407 244.7,-403.5 234.7,-400 234.7,-407"/>
</g>
<!-- 1200円 -->
<g id="node4" class="node">
<title>1200円</title>
<polygon fill="none" stroke="black" points="608,-440.5 608,-476.5 668.25,-476.5 668.25,-440.5 608,-440.5"/>
<text text-anchor="middle" x="638.12" y="-453.2" font-family="Times New Roman,serif" font-size="14.00">1200円</text>
</g>
<!-- ナスとベーコンの熱々パスタセット&#45;&gt;1200円 -->
<g id="edge3" class="edge">
<title>ナスとベーコンの熱々パスタセット&#45;&gt;1200円</title>
<path fill="none" stroke="black" d="M554.72,-458.5C570.22,-458.5 584.89,-458.5 597.43,-458.5"/>
<polygon fill="black" stroke="black" points="597.32,-462 607.32,-458.5 597.32,-455 597.32,-462"/>
</g>
<!-- 1520円 -->
<g id="node6" class="node">
<title>1520円</title>
<polygon fill="none" stroke="black" points="608,-385.5 608,-421.5 668.25,-421.5 668.25,-385.5 608,-385.5"/>
<text text-anchor="middle" x="638.12" y="-398.2" font-family="Times New Roman,serif" font-size="14.00">1520円</text>
</g>
<!-- 絶品カニのトマトクリームパスタセット&#45;&gt;1520円 -->
<g id="edge5" class="edge">
<title>絶品カニのトマトクリームパスタセット&#45;&gt;1520円</title>
<path fill="none" stroke="black" d="M571.97,-403.5C581.03,-403.5 589.59,-403.5 597.34,-403.5"/>
<polygon fill="black" stroke="black" points="597.08,-407 607.08,-403.5 597.08,-400 597.08,-407"/>
</g>
<!-- フライドポテト -->
<g id="node8" class="node">
<title>フライドポテト</title>
<polygon fill="none" stroke="black" points="340.38,-330.5 340.38,-366.5 477.12,-366.5 477.12,-330.5 340.38,-330.5"/>
<text text-anchor="middle" x="408.75" y="-342.7" font-family="Times New Roman,serif" font-size="14.00">フライドポテト</text>
</g>
<!-- 通常&#45;&gt;フライドポテト -->
<g id="edge7" class="edge">
<title>通常&#45;&gt;フライドポテト</title>
<path fill="none" stroke="black" d="M160.64,-229.37C175.52,-254.42 206.18,-299.38 245.5,-321.5 270.99,-335.84 302.05,-343.02 330.15,-346.49"/>
<polygon fill="black" stroke="black" points="329.44,-350.04 339.76,-347.64 330.19,-343.08 329.44,-350.04"/>
</g>
<!-- 絶品ハンバーグ -->
<g id="node10" class="node">
<title>絶品ハンバーグ</title>
<polygon fill="none" stroke="black" points="340.38,-275.5 340.38,-311.5 477.12,-311.5 477.12,-275.5 340.38,-275.5"/>
<text text-anchor="middle" x="408.75" y="-287.7" font-family="Times New Roman,serif" font-size="14.00">絶品ハンバーグ</text>
</g>
<!-- 通常&#45;&gt;絶品ハンバーグ -->
<g id="edge9" class="edge">
<title>通常&#45;&gt;絶品ハンバーグ</title>
<path fill="none" stroke="black" d="M175.66,-229.33C194.09,-241.66 220.27,-257.42 245.5,-266.5 272.19,-276.1 302.59,-282.32 329.8,-286.33"/>
<polygon fill="black" stroke="black" points="329.07,-289.9 339.46,-287.81 330.03,-282.97 329.07,-289.9"/>
</g>
<!-- 和風おろしハンバーグ -->
<g id="node12" class="node">
<title>和風おろしハンバーグ</title>
<polygon fill="none" stroke="black" points="314.5,-220.5 314.5,-256.5 503,-256.5 503,-220.5 314.5,-220.5"/>
<text text-anchor="middle" x="408.75" y="-232.7" font-family="Times New Roman,serif" font-size="14.00">和風おろしハンバーグ</text>
</g>
<!-- 通常&#45;&gt;和風おろしハンバーグ -->
<g id="edge11" class="edge">
<title>通常&#45;&gt;和風おろしハンバーグ</title>
<path fill="none" stroke="black" d="M176.33,-214.19C206.13,-217.32 257.24,-222.69 303.87,-227.59"/>
<polygon fill="black" stroke="black" points="303.36,-231.16 313.67,-228.72 304.09,-224.2 303.36,-231.16"/>
</g>
<!-- 懐かしいチーズピザ -->
<g id="node14" class="node">
<title>懐かしいチーズピザ</title>
<polygon fill="none" stroke="black" points="323.12,-165.5 323.12,-201.5 494.38,-201.5 494.38,-165.5 323.12,-165.5"/>
<text text-anchor="middle" x="408.75" y="-177.7" font-family="Times New Roman,serif" font-size="14.00">懐かしいチーズピザ</text>
</g>
<!-- 通常&#45;&gt;懐かしいチーズピザ -->
<g id="edge13" class="edge">
<title>通常&#45;&gt;懐かしいチーズピザ</title>
<path fill="none" stroke="black" d="M176.33,-208.71C208.03,-205.26 263.85,-199.18 312.72,-193.85"/>
<polygon fill="black" stroke="black" points="312.79,-197.26 322.35,-192.69 312.03,-190.3 312.79,-197.26"/>
</g>
<!-- ゴロゴロじゃがいもカレー -->
<g id="node16" class="node">
<title>ゴロゴロじゃがいもカレー</title>
<polygon fill="none" stroke="black" points="297.25,-110.5 297.25,-146.5 520.25,-146.5 520.25,-110.5 297.25,-110.5"/>
<text text-anchor="middle" x="408.75" y="-122.7" font-family="Times New Roman,serif" font-size="14.00">ゴロゴロじゃがいもカレー</text>
</g>
<!-- 通常&#45;&gt;ゴロゴロじゃがいもカレー -->
<g id="edge15" class="edge">
<title>通常&#45;&gt;ゴロゴロじゃがいもカレー</title>
<path fill="none" stroke="black" d="M175.67,-193.72C194.11,-181.41 220.29,-165.66 245.5,-156.5 258.56,-151.76 272.51,-147.8 286.54,-144.51"/>
<polygon fill="black" stroke="black" points="287.27,-147.72 296.27,-142.13 285.75,-140.88 287.27,-147.72"/>
</g>
<!-- 和牛の贅沢カレー -->
<g id="node18" class="node">
<title>和牛の贅沢カレー</title>
<polygon fill="none" stroke="black" points="331.75,-55.5 331.75,-91.5 485.75,-91.5 485.75,-55.5 331.75,-55.5"/>
<text text-anchor="middle" x="408.75" y="-67.7" font-family="Times New Roman,serif" font-size="14.00">和牛の贅沢カレー</text>
</g>
<!-- 通常&#45;&gt;和牛の贅沢カレー -->
<g id="edge17" class="edge">
<title>通常&#45;&gt;和牛の贅沢カレー</title>
<path fill="none" stroke="black" d="M160.65,-193.67C175.56,-168.65 206.24,-123.73 245.5,-101.5 268.24,-88.62 295.44,-81.37 321,-77.37"/>
<polygon fill="black" stroke="black" points="321.43,-80.7 330.84,-75.85 320.45,-73.77 321.43,-80.7"/>
</g>
<!-- シェフ自慢のカルボナーラ -->
<g id="node20" class="node">
<title>シェフ自慢のカルボナーラ</title>
<polygon fill="none" stroke="black" points="297.25,-0.5 297.25,-36.5 520.25,-36.5 520.25,-0.5 297.25,-0.5"/>
<text text-anchor="middle" x="408.75" y="-12.7" font-family="Times New Roman,serif" font-size="14.00">シェフ自慢のカルボナーラ</text>
</g>
<!-- 通常&#45;&gt;シェフ自慢のカルボナーラ -->
<g id="edge19" class="edge">
<title>通常&#45;&gt;シェフ自慢のカルボナーラ</title>
<path fill="none" stroke="black" d="M155.49,-193.62C165.65,-159.04 192.98,-83.22 245.5,-46.5 257.97,-37.78 272.26,-31.48 287.09,-26.96"/>
<polygon fill="black" stroke="black" points="287.71,-30.15 296.42,-24.12 285.85,-23.4 287.71,-30.15"/>
</g>
<!-- 300円 -->
<g id="node9" class="node">
<title>300円</title>
<polygon fill="none" stroke="black" points="611.12,-330.5 611.12,-366.5 665.12,-366.5 665.12,-330.5 611.12,-330.5"/>
<text text-anchor="middle" x="638.12" y="-343.2" font-family="Times New Roman,serif" font-size="14.00">300円</text>
</g>
<!-- フライドポテト&#45;&gt;300円 -->
<g id="edge8" class="edge">
<title>フライドポテト&#45;&gt;300円</title>
<path fill="none" stroke="black" d="M477.05,-348.5C517.52,-348.5 567.46,-348.5 600.69,-348.5"/>
<polygon fill="black" stroke="black" points="600.28,-352 610.28,-348.5 600.28,-345 600.28,-352"/>
</g>
<!-- 800円 -->
<g id="node11" class="node">
<title>800円</title>
<polygon fill="none" stroke="black" points="611.12,-275.5 611.12,-311.5 665.12,-311.5 665.12,-275.5 611.12,-275.5"/>
<text text-anchor="middle" x="638.12" y="-288.2" font-family="Times New Roman,serif" font-size="14.00">800円</text>
</g>
<!-- 絶品ハンバーグ&#45;&gt;800円 -->
<g id="edge10" class="edge">
<title>絶品ハンバーグ&#45;&gt;800円</title>
<path fill="none" stroke="black" d="M477.05,-293.5C517.52,-293.5 567.46,-293.5 600.69,-293.5"/>
<polygon fill="black" stroke="black" points="600.28,-297 610.28,-293.5 600.28,-290 600.28,-297"/>
</g>
<!-- 830円 -->
<g id="node13" class="node">
<title>830円</title>
<polygon fill="none" stroke="black" points="611.12,-220.5 611.12,-256.5 665.12,-256.5 665.12,-220.5 611.12,-220.5"/>
<text text-anchor="middle" x="638.12" y="-233.2" font-family="Times New Roman,serif" font-size="14.00">830円</text>
</g>
<!-- 和風おろしハンバーグ&#45;&gt;830円 -->
<g id="edge12" class="edge">
<title>和風おろしハンバーグ&#45;&gt;830円</title>
<path fill="none" stroke="black" d="M502.89,-238.5C537.07,-238.5 573.83,-238.5 600.22,-238.5"/>
<polygon fill="black" stroke="black" points="600.21,-242 610.21,-238.5 600.21,-235 600.21,-242"/>
</g>
<!-- 700円 -->
<g id="node15" class="node">
<title>700円</title>
<polygon fill="none" stroke="black" points="611.12,-165.5 611.12,-201.5 665.12,-201.5 665.12,-165.5 611.12,-165.5"/>
<text text-anchor="middle" x="638.12" y="-178.2" font-family="Times New Roman,serif" font-size="14.00">700円</text>
</g>
<!-- 懐かしいチーズピザ&#45;&gt;700円 -->
<g id="edge14" class="edge">
<title>懐かしいチーズピザ&#45;&gt;700円</title>
<path fill="none" stroke="black" d="M494.09,-183.5C530.8,-183.5 571.89,-183.5 600.58,-183.5"/>
<polygon fill="black" stroke="black" points="600.31,-187 610.31,-183.5 600.31,-180 600.31,-187"/>
</g>
<!-- 950円 -->
<g id="node17" class="node">
<title>950円</title>
<polygon fill="none" stroke="black" points="611.12,-110.5 611.12,-146.5 665.12,-146.5 665.12,-110.5 611.12,-110.5"/>
<text text-anchor="middle" x="638.12" y="-123.2" font-family="Times New Roman,serif" font-size="14.00">950円</text>
</g>
<!-- ゴロゴロじゃがいもカレー&#45;&gt;950円 -->
<g id="edge16" class="edge">
<title>ゴロゴロじゃがいもカレー&#45;&gt;950円</title>
<path fill="none" stroke="black" d="M520.11,-128.5C549.21,-128.5 578.6,-128.5 600.64,-128.5"/>
<polygon fill="black" stroke="black" points="600.46,-132 610.46,-128.5 600.46,-125 600.46,-132"/>
</g>
<!-- 1300円 -->
<g id="node19" class="node">
<title>1300円</title>
<polygon fill="none" stroke="black" points="608,-55.5 608,-91.5 668.25,-91.5 668.25,-55.5 608,-55.5"/>
<text text-anchor="middle" x="638.12" y="-68.2" font-family="Times New Roman,serif" font-size="14.00">1300円</text>
</g>
<!-- 和牛の贅沢カレー&#45;&gt;1300円 -->
<g id="edge18" class="edge">
<title>和牛の贅沢カレー&#45;&gt;1300円</title>
<path fill="none" stroke="black" d="M485.46,-73.5C522.86,-73.5 566.44,-73.5 597.27,-73.5"/>
<polygon fill="black" stroke="black" points="597.01,-77 607.01,-73.5 597.01,-70 597.01,-77"/>
</g>
<!-- 1100円 -->
<g id="node21" class="node">
<title>1100円</title>
<polygon fill="none" stroke="black" points="608,-0.5 608,-36.5 668.25,-36.5 668.25,-0.5 608,-0.5"/>
<text text-anchor="middle" x="638.12" y="-13.2" font-family="Times New Roman,serif" font-size="14.00">1100円</text>
</g>
<!-- シェフ自慢のカルボナーラ&#45;&gt;1100円 -->
<g id="edge20" class="edge">
<title>シェフ自慢のカルボナーラ&#45;&gt;1100円</title>
<path fill="none" stroke="black" d="M520.11,-18.5C547.86,-18.5 575.87,-18.5 597.53,-18.5"/>
<polygon fill="black" stroke="black" points="597.24,-22 607.24,-18.5 597.24,-15 597.24,-22"/>
</g>
</g>
</svg>
